<?xml version="1.0" encoding="iso-8859-1"?>
<!-- Generator: Adobe Illustrator 19.0.0, SVG Export Plug-In . SVG Version: 6.00 Build 0)  -->
<svg version="1.1" id="Layer_1" xmlns="http://www.w3.org/2000/svg" xmlns:xlink="http://www.w3.org/1999/xlink" x="0px" y="0px"
	 viewBox="0 0 297 297" style="enable-background:new 0 0 297 297;" xml:space="preserve">
<g>
	<g id="XMLID_38_">
		<g>
			<rect x="124.81" y="229.85" style="fill:#2ECC71;" width="47.38" height="47.38"/>
			<rect x="124.81" y="124.81" style="fill:#1ABC9C;" width="47.38" height="47.38"/>
			<rect x="124.81" y="19.77" style="fill:#16A085;" width="47.38" height="47.38"/>
			<path d="M191.96,228.98v49.12c0,10.42-8.47,18.9-18.89,18.9h-49.13c-10.42,0-18.9-8.48-18.9-18.9v-49.12
				c0-10.42,8.48-18.9,18.9-18.9h49.13C183.49,210.08,191.96,218.56,191.96,228.98z M172.19,277.23v-47.38h-47.38v47.38H172.19z"/>
			<path d="M191.96,123.94v49.12c0,10.42-8.47,18.9-18.89,18.9h-49.13c-10.42,0-18.9-8.48-18.9-18.9v-49.12
				c0-10.42,8.48-18.9,18.9-18.9h49.13C183.49,105.04,191.96,113.52,191.96,123.94z M172.19,172.19v-47.38h-47.38v47.38H172.19z"/>
			<path d="M191.96,18.9v49.12c0,10.42-8.47,18.9-18.89,18.9h-49.13c-10.42,0-18.9-8.48-18.9-18.9V18.9c0-10.42,8.48-18.9,18.9-18.9
				h49.13C183.49,0,191.96,8.48,191.96,18.9z M172.19,67.15V19.77h-47.38v47.38H172.19z"/>
		</g>
	</g>
</g>
<g>
</g>
<g>
</g>
<g>
</g>
<g>
</g>
<g>
</g>
<g>
</g>
<g>
</g>
<g>
</g>
<g>
</g>
<g>
</g>
<g>
</g>
<g>
</g>
<g>
</g>
<g>
</g>
<g>
</g>
</svg>
