<?xml version="1.0" encoding="iso-8859-1"?>
<!-- Uploaded to: SVG Repo, www.svgrepo.com, Generator: SVG Repo Mixer Tools -->
<!DOCTYPE svg PUBLIC "-//W3C//DTD SVG 1.1//EN" "http://www.w3.org/Graphics/SVG/1.1/DTD/svg11.dtd">
<svg fill="#000000" version="1.1" id="Capa_1" xmlns="http://www.w3.org/2000/svg" xmlns:xlink="http://www.w3.org/1999/xlink" 
	 width="800px" height="800px" viewBox="0 0 61.719 61.719"
	 xml:space="preserve">
<g>
	<g>
		<rect x="0.651" y="52.409" width="4.167" height="9.311"/>
		<rect x="0.651" y="47.015" width="4.167" height="3.245"/>
		<rect x="0.651" y="41.993" width="4.167" height="3.244"/>
		<rect x="6.901" y="43.89" width="4.167" height="3.245"/>
		<rect x="6.901" y="38.868" width="4.167" height="3.244"/>
		<rect x="13.151" y="39.724" width="4.167" height="3.245"/>
		<rect x="13.151" y="34.701" width="4.167" height="3.244"/>
		<rect x="19.401" y="41.807" width="4.167" height="3.245"/>
		<rect x="19.401" y="36.784" width="4.167" height="3.244"/>
		<rect x="25.651" y="30.349" width="4.167" height="3.245"/>
		<rect x="25.651" y="25.325" width="4.167" height="3.245"/>
		<rect x="31.902" y="5.024" width="4.166" height="3.245"/>
		<rect x="31.902" width="4.166" height="3.245"/>
		<rect x="38.152" y="9.191" width="4.166" height="3.245"/>
		<rect x="38.152" y="4.167" width="4.166" height="3.245"/>
		<rect x="44.402" y="15.441" width="4.166" height="3.245"/>
		<rect x="44.402" y="10.417" width="4.166" height="3.245"/>
		<rect x="50.652" y="30.024" width="4.166" height="3.244"/>
		<rect x="50.652" y="25" width="4.166" height="3.245"/>
		<rect x="56.902" y="26.899" width="4.166" height="3.245"/>
		<rect x="56.902" y="21.875" width="4.166" height="3.245"/>
		<rect x="6.901" y="49.305" width="4.167" height="12.414"/>
		<rect x="13.151" y="45.313" width="4.167" height="16.406"/>
		<rect x="25.651" y="35.677" width="4.167" height="26.042"/>
		<rect x="31.902" y="10.742" width="4.166" height="50.978"/>
		<rect x="38.152" y="14.909" width="4.166" height="46.811"/>
		<rect x="44.402" y="21.159" width="4.166" height="40.561"/>
		<rect x="50.652" y="35.677" width="4.166" height="26.042"/>
		<rect x="56.902" y="32.292" width="4.166" height="29.428"/>
		<rect x="19.401" y="47.222" width="4.167" height="14.497"/>
	</g>
</g>
</svg>