<?xml version="1.0" encoding="UTF-8" standalone="no"?>
<!DOCTYPE svg PUBLIC "-//W3C//DTD SVG 20010904//EN"
              "http://www.w3.org/TR/2001/REC-SVG-20010904/DTD/svg10.dtd">

<svg xmlns="http://www.w3.org/2000/svg"
     width="7.11111in" height="7.11111in"
     viewBox="0 0 512 512">
  <path id="Selection"
        fill="black" stroke="black" stroke-width="1"
        d="M 106.00,128.00
           C 86.63,128.00 67.78,131.13 53.30,114.96
             37.61,97.44 38.39,69.08 56.01,53.18
             65.23,44.87 75.84,42.02 88.00,42.00
             88.00,42.00 350.00,42.00 350.00,42.00
             383.16,42.05 405.95,64.84 406.00,98.00
             406.00,98.00 406.00,384.00 406.00,384.00
             406.00,384.00 458.00,384.00 458.00,384.00
             468.80,384.20 469.99,390.97 470.00,400.00
             470.02,410.96 470.71,421.33 467.56,432.00
             460.29,456.66 438.97,469.96 414.00,470.00
             414.00,470.00 244.00,470.00 244.00,470.00
             244.00,470.00 150.00,470.00 150.00,470.00
             122.95,469.68 106.04,450.45 106.00,424.00
             106.00,424.00 106.00,128.00 106.00,128.00 Z
           M 106.00,106.00
           C 106.00,106.00 106.00,89.00 106.00,89.00
             105.99,84.38 106.01,80.30 103.95,76.00
             98.08,63.70 80.90,61.01 71.10,70.21
             65.67,75.31 64.28,81.83 65.18,89.00
             65.60,92.30 66.83,95.28 68.80,97.96
             70.73,100.60 73.08,102.54 76.00,104.00
             80.24,106.13 83.43,105.99 88.00,106.00
             88.00,106.00 106.00,106.00 106.00,106.00 Z
           M 384.00,384.00
           C 384.00,384.00 384.00,139.00 384.00,139.00
             384.00,139.00 384.00,113.00 384.00,113.00
             384.00,93.76 383.89,72.16 361.00,65.93
             356.31,64.65 348.91,64.01 344.00,64.00
             344.00,64.00 123.00,64.00 123.00,64.00
             124.82,68.30 126.34,71.34 127.33,76.00
             127.33,76.00 128.00,109.00 128.00,109.00
             128.00,109.00 128.00,175.00 128.00,175.00
             128.00,175.00 128.00,418.00 128.00,418.00
             128.01,424.81 128.50,433.34 132.64,438.98
             140.47,449.69 157.07,450.08 165.47,439.91
             172.35,431.59 169.87,409.92 170.00,399.00
             170.07,393.18 171.28,387.93 177.00,385.02
             179.97,383.52 187.44,384.00 191.00,384.00
             191.00,384.00 220.00,384.00 220.00,384.00
             220.00,384.00 384.00,384.00 384.00,384.00 Z
           M 201.00,229.00
           C 199.33,221.58 197.56,215.58 200.47,208.00
             206.37,192.63 225.66,186.15 238.99,196.53
             245.97,201.97 249.34,210.27 248.96,219.00
             248.67,225.52 246.03,227.37 247.81,231.00
             248.86,233.16 254.06,238.06 256.00,240.00
             261.97,245.97 272.20,254.92 276.00,262.00
             281.07,259.22 285.10,257.73 291.00,258.09
             293.99,258.28 298.27,259.82 300.83,258.89
             303.46,257.94 307.07,253.15 309.09,251.00
             309.09,251.00 323.00,237.00 323.00,237.00
             324.96,235.03 328.79,231.57 329.65,229.00
             330.32,227.02 329.08,221.76 329.01,219.00
             328.77,209.04 332.20,200.46 341.00,194.99
             356.26,185.52 375.78,195.74 378.68,213.00
             380.26,222.42 375.90,233.11 367.96,238.45
             364.11,241.04 358.66,242.82 354.00,242.82
             344.91,242.82 343.94,237.69 335.91,245.18
             335.91,245.18 319.49,262.17 319.49,262.17
             318.07,263.77 314.63,267.29 313.86,269.00
             312.58,271.83 314.16,274.18 314.79,277.00
             315.07,279.24 315.10,284.67 314.79,287.00
             313.78,300.79 300.75,308.30 288.00,307.99
             275.48,307.68 265.66,298.39 264.18,286.00
             263.27,278.40 266.12,275.48 264.80,272.00
             263.55,268.72 249.41,255.41 246.00,252.00
             243.56,249.56 236.84,241.80 233.72,241.44
             231.84,241.22 227.35,243.04 223.00,242.79
             219.44,242.59 212.73,239.99 210.00,241.07
             207.08,242.21 195.06,254.94 192.00,258.00
             189.36,260.64 181.38,267.95 180.35,271.00
             179.41,273.76 181.65,279.39 181.66,283.00
             181.70,294.21 173.82,304.37 163.00,307.24
             146.39,311.64 131.00,300.43 131.00,283.00
             131.00,277.57 131.40,273.62 134.65,269.00
             139.96,261.42 148.83,257.53 158.00,258.09
             158.00,258.09 165.00,259.36 165.00,259.36
             170.75,260.17 174.11,254.68 177.51,250.83
             182.57,245.11 194.61,232.02 201.00,229.00 Z
           M 448.00,406.00
           C 448.00,406.00 192.00,406.00 192.00,406.00
             192.00,423.69 194.09,431.28 187.00,448.00
             187.00,448.00 410.00,448.00 410.00,448.00
             425.41,447.82 439.81,442.81 445.45,427.00
             447.56,421.11 448.00,412.27 448.00,406.00 Z" />
</svg>
