<?xml version="1.0" encoding="utf-8"?>
<!-- Svg Vector Icons : http://www.onlinewebfonts.com/icon -->
<!DOCTYPE svg PUBLIC "-//W3C//DTD SVG 1.1//EN" "http://www.w3.org/Graphics/SVG/1.1/DTD/svg11.dtd">
<svg version="1.1" xmlns="http://www.w3.org/2000/svg" xmlns:xlink="http://www.w3.org/1999/xlink" x="0px" y="0px" viewBox="0 0 1000 1000" enable-background="new 0 0 1000 1000" xml:space="preserve">
<metadata> Svg Vector Icons : http://www.onlinewebfonts.com/icon </metadata>
<g><g transform="translate(0.000000,511.000000) scale(0.100000,-0.100000)"><path d="M4566.9,3941.1C3201.5,3799.4,1988.3,2940.6,1388,1687.8c-214.7-450.3-335.6-894.3-379.4-1407.1l-25-293.9l-364.8-8.3C308.2-27.8,243.6-34,197.7-65.3c-73-47.9-110.5-141.7-93.8-231.4c14.6-75,1209-2026.1,1300.7-2124.1c114.6-120.9,291.8-118.8,404.4,2.1c68.8,70.9,1284,1930.3,1321.6,2019.9c45.9,106.3,35.4,185.5-29.2,258.5c-52.1,58.4-75,66.7-223,83.4c-91.7,8.3-279.3,16.7-414.8,16.7l-248.1,2.1l14.6,202.2C2332.3,1610.6,3535,2734.2,4983.8,2734.2c567,0,1171.5-200.1,1615.5-535.7c83.4-60.4,152.2-110.5,156.3-106.3c2.1,4.2,160.5,233.5,350.2,510.7l346,506.5l-129.2,91.7c-229.3,160.5-371,246-627.5,369C6034.3,3889,5298.5,4016.2,4566.9,3941.1z"/><path d="M8273.1,2700.8c-35.4-16.7-79.2-47.9-95.9-66.7c-85.5-98-1298.6-1986.5-1323.7-2059.5c-25-75-22.9-95.9,4.2-162.6c39.6-95.9,131.3-137.6,300.2-137.6c66.7,0,237.6-6.3,375.2-14.6l254.3-12.5l-12.5-148c-56.3-710.8-304.4-1275.7-769.2-1761.4c-402.3-416.9-888-685.8-1469.6-808.8c-248.1-52.1-796.3-50-1042.3,2.1c-375.2,81.3-754.6,248-1063.1,469c-95.9,68.8-183.4,118.8-191.8,110.5c-6.3-8.3-164.7-235.5-350.2-504.5l-335.6-489.9l58.4-47.9c248.1-204.3,810.9-498.2,1177.7-617c969.3-310.6,1997-246,2918.3,183.4C7491.4-3002.4,8168.9-2345.8,8567-1562c256.4,504.5,394,1008.9,425.2,1565.5l14.6,239.7l312.7-8.3c346-8.3,456.5,10.4,531.6,89.6c73,79.2,64.6,187.6-27.1,350.2c-210.5,371-1221.5,1967.8-1267.4,2001.1C8481.6,2732.1,8354.4,2742.5,8273.1,2700.8z"/></g></g>
</svg>