<?xml version="1.0" encoding="utf-8"?>
<!-- Svg Vector Icons : http://www.onlinewebfonts.com/icon -->
<!DOCTYPE svg PUBLIC "-//W3C//DTD SVG 1.1//EN" "http://www.w3.org/Graphics/SVG/1.1/DTD/svg11.dtd">
<svg version="1.1" xmlns="http://www.w3.org/2000/svg" xmlns:xlink="http://www.w3.org/1999/xlink" x="0px" y="0px" viewBox="0 0 1000 1000" enable-background="new 0 0 1000 1000" xml:space="preserve">
<metadata> Svg Vector Icons : http://www.onlinewebfonts.com/icon </metadata>
<g><g transform="translate(0.000000,512.000000) scale(0.100000,-0.100000)"><path d="M791.7,5001.4c-344.6-51.7-628-344.6-677.8-702.7c-11.5-78.5-15.3-1451.4-13.4-3461.8l5.7-3331.6l44-109.1c95.7-237.4,293-425.1,515.1-494c120.6-36.4,174.2-38.3,1817.1-38.3H4175v402.1v402.1H2537.9H900.8v823.3v823.3h1637.1H4175v402.1v402.1H2537.9H900.8v823.3v823.3H4175h3274.2v-411.7V942.2h402.1h402.1v1692.6c0,1642.8-1.9,1696.4-38.3,1817.1c-70.8,229.8-250.8,415.5-499.7,517l-103.4,42.1l-3360.3,1.9C2403.9,5014.8,847.2,5009,791.7,5001.4z M7449.2,3393v-823.3H4175H900.8V3393v823.3H4175h3274.2V3393z"/><path d="M1322.1,3393v-402.1h1014.8h1014.8V3393v402.1H2336.9H1322.1V3393z"/><path d="M5287.5,3766.4c-294.9-91.9-373.4-486.3-137.9-685.5c252.7-210.6,652.9-28.7,652.9,296.8C5802.5,3655.3,5545.9,3848.7,5287.5,3766.4z"/><path d="M6512.9,3766.4c-294.9-91.9-373.4-486.3-137.8-685.5c252.7-210.6,652.9-28.7,652.9,296.8C7027.9,3655.3,6771.3,3848.7,6512.9,3766.4z"/><path d="M1322.1,942.2V540.1h1014.8h1014.8v402.1v402.1H2336.9H1322.1V942.2z"/><path d="M7206,97.8c-829.1-82.3-1564.3-591.6-1947.3-1353.7c-136-270-220.2-589.8-248.9-945.9l-9.6-130.2h400.2h398.3l13.4,130.2C5882.9-1478,6367.3-917,7077.7-733.2c193.4,51.7,561,47.9,764-5.7c193.4-53.6,423.1-164.7,584-287.2c210.6-158.9,229.8-109.2-183.8-522.7L7880-1910.7h1011H9900v1009.1v1011l-358.1-358.1l-360-358.1l-105.3,95.7c-134,118.7-371.5,281.5-545.7,367.6C8132.7,53.8,7655.9,141.8,7206,97.8z"/><path d="M1322.1-1508.7v-402.1h1014.8h1014.8v402.1v402.1H2336.9H1322.1V-1508.7z"/><path d="M9086.2-2450.7c-82.3-756.3-568.7-1317.3-1286.7-1482c-208.7-49.8-538-44.1-742.9,9.6c-193.4,49.8-423.1,162.8-584,285.3c-210.6,158.9-229.8,109.1,183.8,522.7l361.9,361.9h-1011H4998.3v-1009.1v-1011l360,356.1l358.1,358.1l174.3-147.4c494-411.7,1122-610.8,1759.6-555.3c469.1,40.2,875,193.4,1244.6,465.3c589.7,436.6,940.1,1085.6,991.8,1836.2l9.6,128.3h-398.3h-398.3L9086.2-2450.7z"/></g></g>
</svg>