<?xml version="1.0" encoding="utf-8"?>
<!-- Svg Vector Icons : http://www.onlinewebfonts.com/icon -->
<!DOCTYPE svg PUBLIC "-//W3C//DTD SVG 1.1//EN" "http://www.w3.org/Graphics/SVG/1.1/DTD/svg11.dtd">
<svg version="1.1" xmlns="http://www.w3.org/2000/svg" xmlns:xlink="http://www.w3.org/1999/xlink" x="0px" y="0px" viewBox="0 0 1000 1000" enable-background="new 0 0 1000 1000" xml:space="preserve">
<metadata> Svg Vector Icons : http://www.onlinewebfonts.com/icon </metadata>
<g><path d="M153.9,376.2C204.6,234,340.3,132.1,500,132.1c69.7,0,134.7,19.7,190.2,53.4l-67.6,118.3L990,489.4C984.3,223.4,767.3,9.4,500,9.4c-213.4,0-394.4,136.4-461.9,326.6C55.3,425.8,136.5,406.3,153.9,376.2L153.9,376.2L153.9,376.2z M843,632C790,770,656.6,867.9,500,867.9c-71.6,0-138.3-20.8-194.8-56.2l59.7-95.6L10,512.2c6.6,265.3,223.2,478.4,490,478.4c214.6,0,396.6-138,463.1-330C983.3,602.1,885.5,521.6,843,632L843,632L843,632z"/></g>
</svg>