<?xml version="1.0" encoding="utf-8"?>
<!-- Svg Vector Icons : http://www.onlinewebfonts.com/icon -->
<!DOCTYPE svg PUBLIC "-//W3C//DTD SVG 1.1//EN" "http://www.w3.org/Graphics/SVG/1.1/DTD/svg11.dtd">
<svg version="1.1" xmlns="http://www.w3.org/2000/svg" xmlns:xlink="http://www.w3.org/1999/xlink" x="0px" y="0px" viewBox="0 0 1000 1000" enable-background="new 0 0 1000 1000" xml:space="preserve">
<metadata> Svg Vector Icons : http://www.onlinewebfonts.com/icon </metadata>
<g><g><path d="M908.3,10H91.7C46.6,10,10,46.6,10,91.7v816.7c0,45.1,36.6,81.7,81.7,81.7h816.7c45.1,0,81.7-36.6,81.7-81.7V91.7C990,46.6,953.4,10,908.3,10z M949.2,908.3c0,22.6-18.3,40.8-40.8,40.8H91.7c-22.6,0-40.8-18.3-40.8-40.8V91.7c0-22.6,18.3-40.8,40.8-40.8h816.7c22.6,0,40.8,18.3,40.8,40.8L949.2,908.3L949.2,908.3z"/><path d="M806.2,479.6h-64.1c-9.1-35.2-40.8-61.3-78.8-61.3c-38,0-69.7,26.1-78.8,61.3H193.7c-11.3,0-20.4,9.2-20.4,20.4c0,11.3,9.2,20.4,20.4,20.4h390.8c9.1,35.2,40.8,61.3,78.8,61.3c38,0,69.7-26.1,78.8-61.3h64.1c11.3,0,20.4-9.2,20.4-20.4C826.7,488.7,817.5,479.6,806.2,479.6z M698.5,520.4c-7.1,12.2-20.1,20.4-35.2,20.4c-15.1,0-28.1-8.3-35.2-20.4c-3.5-6-5.7-12.9-5.7-20.4c0-7.5,2.2-14.4,5.7-20.4c7.1-12.1,20.1-20.4,35.2-20.4c15.1,0,28.1,8.3,35.2,20.4c3.5,6,5.7,12.9,5.7,20.4C704.2,507.5,702,514.4,698.5,520.4z"/><path d="M806.2,234.6H415.4c-9.1-35.2-40.8-61.3-78.8-61.3c-38,0-69.7,26.1-78.8,61.3h-64.2c-11.3,0-20.4,9.2-20.4,20.4c0,11.3,9.2,20.4,20.4,20.4h64.2c9.1,35.2,40.8,61.3,78.8,61.3c38,0,69.7-26.1,78.8-61.3h390.8c11.3,0,20.4-9.2,20.4-20.4C826.7,243.7,817.5,234.6,806.2,234.6z M371.8,275.4c-7.1,12.2-20.1,20.4-35.2,20.4c-15.1,0-28.1-8.3-35.2-20.4c-3.5-6-5.7-12.9-5.7-20.4s2.2-14.4,5.7-20.4c7.1-12.1,20.1-20.4,35.2-20.4c15.1,0,28.1,8.3,35.2,20.4c3.5,6,5.7,12.9,5.7,20.4C377.5,262.5,375.3,269.4,371.8,275.4z"/><path d="M806.2,724.6H415.4c-9.1-35.2-40.8-61.3-78.8-61.3c-38,0-69.7,26.1-78.8,61.3h-64.2c-11.3,0-20.4,9.2-20.4,20.4s9.2,20.4,20.4,20.4h64.2c9.1,35.2,40.8,61.3,78.8,61.3c38,0,69.7-26.1,78.8-61.3h390.8c11.3,0,20.4-9.2,20.4-20.4C826.7,733.7,817.5,724.6,806.2,724.6z M371.8,765.4c-7.1,12.2-20.1,20.4-35.2,20.4c-15.1,0-28.1-8.3-35.2-20.4c-3.5-6-5.7-12.9-5.7-20.4c0-7.5,2.2-14.4,5.7-20.4c7.1-12.1,20.1-20.4,35.2-20.4c15.1,0,28.1,8.3,35.2,20.4c3.5,6,5.7,12.9,5.7,20.4C377.5,752.5,375.3,759.4,371.8,765.4z"/></g><g></g><g></g><g></g><g></g><g></g><g></g><g></g><g></g><g></g><g></g><g></g><g></g><g></g><g></g><g></g></g>
</svg>