<svg id="svg" xmlns="http://www.w3.org/2000/svg" xmlns:xlink="http://www.w3.org/1999/xlink" width="400" height="400" viewBox="0, 0, 400,400"><g id="svgg"><path id="path0" d="M4.000 200.000 C 4.000 307.800,4.103 396.000,4.230 396.000 C 4.652 396.000,281.200 200.299,281.200 200.000 C 281.200 199.701,4.652 4.000,4.230 4.000 C 4.103 4.000,4.000 92.200,4.000 200.000 M341.197 5.550 C 331.549 8.714,331.054 21.098,340.400 25.500 C 341.830 26.173,343.368 27.074,343.818 27.501 C 344.268 27.929,344.812 28.351,345.027 28.439 C 346.071 28.868,349.171 31.462,349.184 31.919 C 349.193 32.204,349.731 32.742,350.379 33.114 C 351.028 33.486,351.737 34.182,351.955 34.661 C 352.173 35.139,352.722 35.648,353.176 35.792 C 353.629 35.936,354.001 36.267,354.001 36.527 C 354.002 36.787,354.541 37.360,355.200 37.800 C 355.859 38.240,356.398 38.827,356.399 39.104 C 356.399 39.381,356.760 39.916,357.200 40.293 C 357.640 40.670,358.000 41.208,358.000 41.489 C 358.000 41.770,358.180 42.000,358.400 42.000 C 358.620 42.000,358.800 42.205,358.800 42.456 C 358.800 43.063,360.519 46.564,360.900 46.733 C 361.065 46.807,361.200 47.155,361.200 47.508 C 361.200 48.929,362.799 50.032,363.676 49.215 C 364.845 48.126,364.060 38.326,362.694 36.960 C 362.532 36.799,362.400 36.176,362.400 35.575 C 362.400 34.208,360.893 29.268,360.153 28.212 C 359.849 27.778,359.600 27.012,359.600 26.511 C 359.600 26.010,359.443 25.600,359.252 25.600 C 359.060 25.600,358.784 24.700,358.638 23.600 C 358.492 22.500,358.216 21.600,358.025 21.600 C 357.835 21.600,357.553 20.520,357.400 19.200 C 357.247 17.880,356.959 16.800,356.761 16.800 C 356.562 16.800,356.400 16.438,356.400 15.995 C 356.400 15.552,356.235 14.877,356.034 14.495 C 355.832 14.113,355.388 13.156,355.047 12.368 C 354.361 10.784,352.560 8.800,351.807 8.800 C 351.542 8.800,350.981 8.421,350.562 7.957 C 348.736 5.938,343.846 4.681,341.197 5.550 M356.200 59.464 C 340.641 62.791,329.730 76.681,330.015 92.800 C 330.056 95.110,330.069 148.125,330.045 210.611 L 330.000 324.223 325.761 322.135 C 299.487 309.200,269.044 328.236,269.044 357.600 C 269.044 386.964,299.487 406.000,325.761 393.065 L 330.000 390.977 330.000 393.489 L 330.000 396.000 363.002 396.000 L 396.004 396.000 395.998 242.164 C 395.992 72.401,396.194 85.720,393.522 79.284 C 387.447 64.647,371.519 56.188,356.200 59.464 " stroke="none" fill="#000000" fill-rule="evenodd"></path></g></svg>