<?xml version="1.0" encoding="utf-8"?>
<!-- Svg Vector Icons : http://www.onlinewebfonts.com/icon -->
<!DOCTYPE svg PUBLIC "-//W3C//DTD SVG 1.1//EN" "http://www.w3.org/Graphics/SVG/1.1/DTD/svg11.dtd">
<svg version="1.1" xmlns="http://www.w3.org/2000/svg" xmlns:xlink="http://www.w3.org/1999/xlink" x="0px" y="0px" viewBox="0 0 1000 1000" enable-background="new 0 0 1000 1000" xml:space="preserve">
<metadata> Svg Vector Icons : http://www.onlinewebfonts.com/icon </metadata>
<g><g transform="translate(0.000000,511.000000) scale(0.100000,-0.100000)"><path d="M6265.1,4980.5c-200.1-53.9-142.4-11.5-1858.8-1443.1l-1154.5-965.9H2155.1c-1019.8,0-1104.5-3.9-1219.9-77c-250.1-150.1-242.4-88.5-242.4-2386c0-2297.5-7.7-2235.9,242.4-2386c115.4-73.1,200.1-77,1219.9-77h1096.8l1385.4-1158.4c762-638.8,1447-1185.3,1520.1-1216.1c273.2-119.3,646.5-57.7,815.9,130.9c192.4,211.7,184.7,42.3,184.7,4706.5c0,4664.2,7.7,4494.8-184.7,4706.5C6819.3,4988.2,6538.3,5053.6,6265.1,4980.5z M6715.4,4661.1c34.6-34.6,80.8-103.9,100-153.9c46.2-123.1,46.2-8674.2,0-8797.3c-19.2-50.1-65.4-119.3-100-153.9c-73.1-77-307.9-84.7-431-15.4c-42.3,27-696.5,558-1447,1181.5l-1370,1135.3V108.5v2251.3L4833.5,3495c750.4,623.4,1404.7,1154.5,1450.8,1181.5C6407.5,4745.7,6642.3,4738,6715.4,4661.1z M3155.7,108.5v-2155.1H2124.3c-750.4,0-1042.9,11.5-1077.5,46.2c-65.4,65.4-65.4,4152.3,0,4217.8c34.6,34.6,327.1,46.2,1077.5,46.2h1031.3V108.5z"/><path d="M1354.6,1601.6c-26.9-26.9-46.2-77-46.2-111.6c0-134.7,88.5-153.9,788.9-142.4c604.2,11.5,688.9,19.2,727.3,80.8c30.8,46.2,30.8,84.7,0,134.7c-38.5,57.7-123.1,65.4-731.2,77C1589.4,1647.8,1389.3,1636.3,1354.6,1601.6z"/><path d="M1354.6,678c-26.9-26.9-46.2-77-46.2-111.6c0-134.7,88.5-153.9,788.9-142.4c604.2,11.5,688.9,19.2,727.3,80.8c30.8,46.2,30.8,84.7,0,134.7c-38.5,57.7-123.1,65.4-731.2,77C1589.4,724.2,1389.3,712.7,1354.6,678z"/><path d="M1354.6-245.6c-26.9-26.9-46.2-77-46.2-111.6c0-134.7,88.5-153.9,788.9-142.4c604.2,11.5,688.9,19.2,727.3,80.8c30.8,46.2,30.8,84.7,0,134.7c-38.5,57.7-123.1,65.4-731.2,77C1589.4-199.4,1389.3-210.9,1354.6-245.6z"/><path d="M1354.6-1169.2c-26.9-26.9-46.2-77-46.2-111.6c0-134.7,88.5-153.9,788.9-142.4c604.2,11.5,688.9,19.2,727.3,80.8c30.8,46.2,30.8,84.7,0,134.7c-38.5,57.7-123.1,65.4-731.2,77C1589.4-1123,1389.3-1134.5,1354.6-1169.2z"/><path d="M7931.4,1886.4c-200.1-100.1-284.7-242.5-304-496.5c-15.4-207.8-3.9-238.6,123.1-415.6c204-280.9,296.3-500.3,319.4-750.4c30.8-319.4-42.4-565.7-261.7-885.1c-157.8-234.8-188.6-307.9-188.6-458c0-346.3,200.1-577.2,527.2-608c273.2-26.9,461.8,80.8,681.2,388.7C9474.7-434.2,9467,701.1,8805,1593.9C8543.3,1940.3,8239.3,2044.2,7931.4,1886.4z M8339.4,1636.3c219.4-123.1,523.4-654.2,611.9-1062.2c103.9-500.3,46.2-989-177-1427.7c-130.8-257.8-357.9-531.1-481-577.3c-115.4-42.4-284.8,34.6-350.2,161.6c-69.3,134.7-46.2,227,103.9,415.6c57.7,73.1,157.8,238.6,215.5,365.6c92.3,200.1,107.7,277.1,107.7,596.5c0,330.9-11.5,388.7-119.3,615.7c-65.4,138.5-173.2,315.6-242.5,400.2c-65.4,80.8-119.3,184.7-119.3,230.9c0,92.4,100,223.2,211.7,284.8C8197,1694,8235.5,1694,8339.4,1636.3z"/></g></g>
</svg>