<?xml version="1.0" encoding="utf-8"?>
<!-- Svg Vector Icons : http://www.onlinewebfonts.com/icon -->
<!DOCTYPE svg PUBLIC "-//W3C//DTD SVG 1.1//EN" "http://www.w3.org/Graphics/SVG/1.1/DTD/svg11.dtd">
<svg version="1.1" xmlns="http://www.w3.org/2000/svg" xmlns:xlink="http://www.w3.org/1999/xlink" x="0px" y="0px" viewBox="0 0 1000 1000" enable-background="new 0 0 1000 1000" xml:space="preserve">
<metadata> Svg Vector Icons : http://www.onlinewebfonts.com/icon </metadata>
<g><g transform="translate(0.000000,511.000000) scale(0.100000,-0.100000)"><path d="M5319.6,4672c-183.8-50.4-126.2-3.6-1741.1-1351.8l-1081.4-904.8H1469.8c-955.2,0-1034.6-3.6-1142.7-72.1C92.8,2202.8,100,2260.5,100,108.5s-7.2-2094.3,227.1-2234.9c108.1-68.5,187.5-72.1,1142.7-72.1h1030.9l1294.1-1085c713.7-598.4,1355.4-1110.2,1423.9-1139.1c259.5-111.7,605.6-54.1,767.8,126.2c169.4,187.5,165.8,104.6,169.4,4415.7c0,4358.1,7.2,4199.5-173,4397.7C5838.7,4679.2,5575.5,4740.5,5319.6,4672z M5741.4,4372.8c32.4-32.5,75.7-97.3,93.7-144.2c43.3-115.4,43.3-8125,0-8240.3c-18-46.9-61.3-111.8-93.7-144.2c-68.5-72.1-288.4-79.3-403.7-14.4c-39.6,25.2-652.5,522.7-1355.4,1106.7L2699-2000.2V108.5v2108.7l1279.7,1063.4c706.5,584,1315.7,1081.4,1359,1106.6C5453,4452.1,5672.9,4444.9,5741.4,4372.8z M2407,108.5v-2018.6h-966c-702.9,0-976.9,10.8-1009.3,43.3c-61.3,61.3-61.3,3889.4,0,3950.7c32.4,32.5,306.4,43.3,1009.3,43.3h966V108.5z"/><path d="M720,1507.1c-25.2-25.2-43.3-72.1-43.3-104.6c0-126.2,82.9-144.2,739-133.3c565.9,10.8,645.2,18,681.3,75.7c28.8,43.3,28.8,79.3,0,126.2c-36,54.1-115.3,61.3-684.9,72.1C939.9,1550.4,752.5,1539.6,720,1507.1z"/><path d="M720,642c-25.2-25.2-43.3-72.1-43.3-104.6c0-126.2,82.9-144.2,739-133.3c565.9,10.8,645.2,18,681.3,75.7c28.8,43.3,28.8,79.3,0,126.2c-36,54.1-115.3,61.3-684.9,72.1C939.9,685.2,752.5,674.4,720,642z"/><path d="M720-223.1c-25.2-25.2-43.3-72.1-43.3-104.6c0-126.2,82.9-144.2,739-133.3c565.9,10.8,645.2,18,681.3,75.7c28.8,43.3,28.8,79.3,0,126.2c-36,54.1-115.3,61.3-684.9,72.1C939.9-179.9,752.5-190.7,720-223.1z"/><path d="M720-1088.3c-25.2-25.2-43.3-72.1-43.3-104.6c0-126.2,82.9-144.2,739-133.3c565.9,10.8,645.2,18,681.3,75.7c28.8,43.3,28.8,79.3,0,126.2c-36,54.1-115.3,61.3-684.9,72.1C939.9-1045,752.5-1055.8,720-1088.3z"/><path d="M8041.2,2992.2c-191.1-115.4-295.6-396.5-234.3-627.2c21.7-68.5,144.2-259.5,281.2-425.3c259.5-320.8,472.2-728.2,576.7-1110.2c90.1-324.4,90.1-1113.9,0-1441.9c-97.3-367.7-328-803.8-583.9-1121.1c-133.4-158.6-252.3-346-274-414.5c-64.9-234.3,39.7-501,241.5-627.2c169.4-104.6,490.2-90.1,659.6,28.8c180.2,129.8,569.5,677.7,764.2,1070.6c558.7,1124.7,569.5,2382.7,36.1,3503.7c-245.1,519.1-659.6,1074.2-879.6,1178.7C8459.3,3085.9,8181.7,3078.7,8041.2,2992.2z M8679.2,2566.9c447-472.2,811.1-1261.6,904.8-1971.8c137-1059.8-216.3-2216.9-904.8-2941.4c-263.1-277.5-331.6-299.2-501.1-155c-162.2,137-147.8,252.3,64.9,508.3c1052.5,1265.2,1063.4,2905.4,21.6,4174.2c-234.3,288.4-252.3,396.5-86.5,537.1C8347.5,2862.5,8416,2840.8,8679.2,2566.9z"/><path d="M6880.4,1777.5c-187.5-97.3-266.7-230.7-284.7-468.6c-14.4-194.7-3.6-223.5,115.3-389.3c191.1-263.1,277.6-468.6,299.2-702.9c28.8-299.2-39.7-529.9-245.1-829.1c-147.8-219.9-176.6-288.4-176.6-429c0-324.4,187.5-540.7,493.8-569.5c255.9-25.2,432.6,75.7,638,364.1c447,623.6,562.3,1340.9,331.6,2065.5c-108.1,331.6-392.9,789.4-569.5,915.6C7331,1846,7042.6,1864,6880.4,1777.5z M7244.5,1546.7c133.4-72.1,281.2-263.1,425.3-555.1c284.8-565.9,284.8-1200.4,0-1766.3c-227.1-457.8-414.5-623.6-616.4-551.5c-104.5,36-212.7,187.4-212.7,292c0,28.8,50.5,115.4,111.7,191c64.9,79.3,165.8,245.1,227.1,374.9c100.9,212.6,111.7,266.7,111.7,576.7c0,310-10.8,364.1-111.7,576.7c-61.3,129.8-162.2,295.6-227.1,374.9c-61.3,75.7-111.7,173.1-111.7,216.3c0,86.5,93.7,209.1,198.3,266.8C7129.2,1593.6,7154.4,1593.6,7244.5,1546.7z"/></g></g>
</svg>