<?xml version="1.0" encoding="utf-8"?>
<!-- Svg Vector Icons : http://www.onlinewebfonts.com/icon -->
<!DOCTYPE svg PUBLIC "-//W3C//DTD SVG 1.1//EN" "http://www.w3.org/Graphics/SVG/1.1/DTD/svg11.dtd">
<svg version="1.1" xmlns="http://www.w3.org/2000/svg" xmlns:xlink="http://www.w3.org/1999/xlink" x="0px" y="0px" viewBox="0 0 1000 1000" enable-background="new 0 0 1000 1000" xml:space="preserve">
<metadata> Svg Vector Icons : http://www.onlinewebfonts.com/icon </metadata>
<g><g transform="translate(0.000000,511.000000) scale(0.100000,-0.100000)"><path d="M7339.8,4980.5c-200.1-53.9-142.4-11.5-1858.8-1443.2l-1154.5-965.9H3229.7c-1019.8,0-1104.5-3.9-1219.9-77c-250.2-150.1-242.4-88.5-242.4-2386s-7.7-2235.9,242.4-2386c115.4-73.1,200.1-77,1219.9-77h1100.6L5712-3513c762-638.8,1447-1185.3,1520.1-1216.1c277.1-119.3,646.5-57.7,819.7,134.7c180.9,200.1,177.1,111.6,180.9,4714.3c0,4652.7,7.7,4483.4-184.7,4695C7894,4988.2,7613.1,5053.6,7339.8,4980.5z M7790.1,4661c34.6-34.6,80.8-103.9,100-153.9c46.2-123.2,46.2-8674.3,0-8797.4c-19.2-50-65.4-119.3-100-153.9c-73.1-77-307.9-84.7-431-15.4c-42.3,27-696.6,558-1447,1181.5L4542-2142.9V108.4v2251.3L5908.2,3495c750.4,623.4,1404.7,1154.5,1450.9,1181.5C7482.2,4745.7,7717,4738,7790.1,4661z M4230.3,108.4v-2155.1H3198.9c-750.4,0-1042.9,11.5-1077.6,46.2c-65.4,65.4-65.4,4152.4,0,4217.8c34.6,34.7,327.1,46.2,1077.6,46.2h1031.4V108.4z"/><path d="M2429.3,1601.6c-26.9-26.9-46.2-77-46.2-111.6c0-134.7,88.5-153.9,788.9-142.4c604.2,11.5,688.9,19.2,727.3,80.8c30.8,46.2,30.8,84.7,0,134.7c-38.5,57.7-123.1,65.4-731.2,77C2664,1647.8,2463.9,1636.2,2429.3,1601.6z"/><path d="M2429.3,677.9c-26.9-26.9-46.2-77-46.2-111.6c0-134.7,88.5-153.9,788.9-142.4c604.2,11.5,688.9,19.2,727.3,80.8c30.8,46.2,30.8,84.7,0,134.7c-38.5,57.7-123.1,65.4-731.2,77C2664,724.1,2463.9,712.6,2429.3,677.9z"/><path d="M2429.3-245.7c-26.9-26.9-46.2-77-46.2-111.6c0-134.7,88.5-153.9,788.9-142.4c604.2,11.5,688.9,19.2,727.3,80.8c30.8,46.2,30.8,84.7,0,134.7c-38.5,57.7-123.1,65.4-731.2,77C2664-199.5,2463.9-211,2429.3-245.7z"/><path d="M2429.3-1169.3c-26.9-27-46.2-77-46.2-111.6c0-134.7,88.5-153.9,788.9-142.4c604.2,11.5,688.9,19.2,727.3,80.8c30.8,46.2,30.8,84.7,0,134.7c-38.5,57.7-123.1,65.4-731.2,77C2664-1123.1,2463.9-1134.6,2429.3-1169.3z"/></g></g>
</svg>