<?xml version="1.0" encoding="utf-8"?>
<!-- Svg Vector Icons : http://www.onlinewebfonts.com/icon -->
<!DOCTYPE svg PUBLIC "-//W3C//DTD SVG 1.1//EN" "http://www.w3.org/Graphics/SVG/1.1/DTD/svg11.dtd">
<svg version="1.1" xmlns="http://www.w3.org/2000/svg" xmlns:xlink="http://www.w3.org/1999/xlink" x="0px" y="0px" viewBox="0 0 1000 1000" enable-background="new 0 0 1000 1000" xml:space="preserve">
<metadata> Svg Vector Icons : http://www.onlinewebfonts.com/icon </metadata>
<g><path d="M867.5,132.5v428.8c0,36.8-24.5,61.3-61.3,61.3H745c-36.8,0-61.3,24.5-61.3,61.3l0,0c0,36.8,24.5,61.3,61.3,61.3h183.8c36.8,0,61.3-24.5,61.3-61.3V10l0,0H316.3C279.5,10,255,34.5,255,71.3v245c0,36.8,24.5,61.3,61.3,61.3l0,0c36.8,0,61.3-24.5,61.3-61.3V193.8c0-36.8,24.5-61.3,61.3-61.3H867.5"/><path d="M622.5,377.5v428.8c0,36.8-24.5,61.3-61.3,61.3H193.8c-36.8,0-61.3-24.5-61.3-61.3V438.8c0-36.8,24.5-61.3,61.3-61.3H622.5 M745,255H71.3C34.5,255,10,279.5,10,316.3v612.5c0,36.8,24.5,61.3,61.3,61.3h612.5c36.8,0,61.3-24.5,61.3-61.3V255L745,255z"/></g>
</svg>